# xmcd
#
# Track frame offsets:
#	150
#	20727
#	43770
#	62287
#	85491
#	101616
#	116822
#	142453
#	163947
#	178717
#	196500
#	211557
#
# Disc length: 3095 seconds
# Revision: 0
# Processed by: cddbd v1.5.2PL0 Copyright (c) Steve Scherf et al.
# Submitted via: dBpowerAMP V12.0
#
DISCID=a90c150c
DTITLE=Ida Jenshus - No Guarantees
DYEAR=2010
DGENRE=Country
TTITLE0=Not Enough
TTITLE1=My Baby`s Gone
TTITLE2=I Waited
TTITLE3=No Guarantees
TTITLE4=You Got a Way
TTITLE5=Leaving
TTITLE6=Reach Out a Hand
TTITLE7=Keeping You From Me
TTITLE8=The Way Back Home
TTITLE9=Have You Ever Seen the Way I Cry
TTITLE10=Better Day
TTITLE11=Carry the Best of Me
EXTD=
EXTT0=
EXTT1=
EXTT2=
EXTT3=
EXTT4=
EXTT5=
EXTT6=
EXTT7=
EXTT8=
EXTT9=
EXTT10=
EXTT11=
PLAYORDER=
